<svg width="223" height="170" viewBox="0 0 223 170" fill="none" xmlns="http://www.w3.org/2000/svg">
<path d="M212.285 32.1259H223V84.9999H212.285V32.1259Z" fill="#252525"/>
<path d="M202.24 85L212.285 84.9999L212.285 106.417H202.24V85Z" fill="#252525"/>
<path d="M202.24 21.4173H212.285L212.285 32.1259L202.24 32.126V21.4173Z" fill="#252525"/>
<path d="M191.525 106.417L202.24 106.417L202.24 117.126H191.525V106.417Z" fill="#252525"/>
<path d="M191.525 42.1653H202.24V63.5827H191.525V42.1653Z" fill="#252525"/>
<path d="M191.525 10.7087H202.24L202.24 21.4173L191.525 21.4174V10.7087Z" fill="#252525"/>
<path d="M180.811 32.1259H191.525L191.525 42.1653L180.811 42.1652V32.1259Z" fill="#252525"/>
<path d="M170.096 117.126L191.525 117.126L191.526 127.165H170.096V117.126Z" fill="#252525"/>
<path d="M159.38 21.4173H180.81V32.126H159.38V21.4173Z" fill="#252525"/>
<path d="M148.667 127.165L170.096 127.165L170.097 137.874H148.667V127.165Z" fill="#252525"/>
<path d="M137.952 0H191.525L191.525 10.7087L137.952 10.7087V0Z" fill="#252525"/>
<path d="M137.952 137.874H148.666V148.583H137.952V137.874Z" fill="#252525"/>
<path d="M117.191 142.559H127.237V149.921H117.191V142.559Z" fill="#252525"/>
<path d="M137.952 132.52H148.666V143.228H137.952V132.52Z" fill="#252525"/>
<path d="M127.237 10.7087L137.952 10.7087L137.952 21.4174H127.237V10.7087Z" fill="#252525"/>
<path d="M117.191 148.583H127.237V159.291H117.191V148.583Z" fill="#252525"/>
<path d="M117.191 21.4173L127.237 21.4174L127.237 32.126H117.191V21.4173Z" fill="#252525"/>
<path d="M117.191 31.4566H127.237V42.1653H117.191V31.4566Z" fill="#252525"/>
<path d="M106.477 159.291L117.191 159.291L117.192 170H106.477V159.291Z" fill="#252525"/>
<path d="M106.477 42.1653L117.191 42.1653L117.192 52.2047H106.477V42.1653Z" fill="#252525"/>
<path d="M85.0481 32.1259H95.7629V42.1652H85.0481V32.1259Z" fill="#252525"/>
<path d="M95.7626 52.2046L106.477 52.2047L106.477 62.244H95.7626V52.2046Z" fill="#252525"/>
<path d="M106.477 132.52H117.192L117.191 142.559L106.477 142.559V132.52Z" fill="#252525"/>
<path d="M106.477 122.48H117.192V132.52H106.477V122.48Z" fill="#252525"/>
<path d="M95.7626 112.441H106.477L106.477 122.48L95.7626 122.48V112.441Z" fill="#252525"/>
<path d="M95.7626 102.401H106.477V112.441H95.7626V102.401Z" fill="#252525"/>
<path d="M117.191 112.441H127.237V122.48L117.192 122.48L117.191 112.441Z" fill="#252525"/>
<path d="M127.237 92.3622H137.952V102.402H127.237V92.3622Z" fill="#252525"/>
<path d="M127.237 102.402H137.952V112.441L127.237 112.441L127.237 102.402Z" fill="#252525"/>
<path d="M127.237 122.48L137.952 122.48L137.952 132.52L127.237 132.52L127.237 122.48Z" fill="#252525"/>
<path d="M106.477 92.3622H116.522V102.402L106.477 102.401L106.477 92.3622Z" fill="#252525"/>
<path d="M117.191 82.3229H127.237L127.237 92.3622L117.191 92.3622V82.3229Z" fill="#252525"/>
<path d="M95.7626 82.3229H106.477L106.477 92.3622L95.7626 92.3622V82.3229Z" fill="#252525"/>
<path d="M117.191 72.2834H127.237V82.3229H117.191V72.2834Z" fill="#252525"/>
<path d="M85.0481 72.2834H95.7629L95.7626 82.3229L85.0481 82.3228V72.2834Z" fill="#252525"/>
<path d="M85.0481 62.2441L95.7626 62.244L95.7629 72.2834H85.0481V62.2441Z" fill="#252525"/>
<path d="M74.3323 52.2046H85.047V62.244H74.3323V52.2046Z" fill="#252525"/>
<path d="M106.477 62.244L117.192 62.2441L117.191 72.2834L106.477 72.2835L106.477 62.244Z" fill="#252525"/>
<path d="M85.0481 42.1652H95.7629L95.7626 52.2046L85.0481 52.2047V42.1652Z" fill="#252525"/>
<path d="M95.7626 148.583H106.477L106.477 159.291L95.7626 159.291V148.583Z" fill="#252525"/>
<path d="M95.7626 21.4173H106.477V32.126L95.7629 32.1259L95.7626 21.4173Z" fill="#252525"/>
<path d="M74.3323 137.874H95.7617V148.583H74.3323V137.874Z" fill="#252525"/>
<path d="M85.0481 10.7087H95.7629L95.7626 21.4173L85.0481 21.4174V10.7087Z" fill="#252525"/>
<path d="M52.9034 127.165H74.3328L74.3323 137.874L52.9034 137.874V127.165Z" fill="#252525"/>
<path d="M32.1433 117.126H52.9031L52.9034 127.165L32.1433 127.165V117.126Z" fill="#252525"/>
<path d="M32.1433 0H85.0472V10.7087H32.1433V0Z" fill="#252525"/>
<path d="M21.4289 106.417H32.1436L32.1433 117.126L21.4289 117.126V106.417Z" fill="#252525"/>
<path d="M21.4289 10.7087L32.1433 10.7087L32.1436 21.4174H21.4289V10.7087Z" fill="#252525"/>
<path d="M10.7144 85H21.4291L21.4289 106.417L10.7144 106.417V85Z" fill="#252525"/>
<path d="M10.7144 21.4173L21.4289 21.4174L21.4291 32.126H10.7144V21.4173Z" fill="#252525"/>
<path d="M0 32.1259L10.7144 32.126V85L0 84.9999V32.1259Z" fill="#252525"/>
</svg>
