<svg width="72" height="72" viewBox="0 0 72 72" fill="none" xmlns="http://www.w3.org/2000/svg">
<rect width="71.2812" height="71.2812" rx="16" fill="#E7E8C6"/>
<path d="M33.9824 55.4741H36.7559V58.2446H33.9814V55.4741H31.208V52.7026H33.9824V55.4741ZM39.3574 55.4741H36.7559V51.144H39.3574V55.4741ZM25.6611 49.9321H31.207V52.7026H25.6592V49.9321H20.1123V47.1616H25.6611V49.9321ZM42.1328 48.5464H44.9053V52.7026H42.1318V48.5464H39.3584V45.9487H42.1328V48.5464ZM31.209 35.5581H33.9824V38.1558H36.582V40.7534H33.9824V45.9487H36.7559V51.144H33.9814V45.9487H31.208V40.7534H33.9814V38.1558H31.208V35.5581H28.4346V30.3628H31.209V35.5581ZM56.0029 47.1616H50.4561V49.9321H44.9072V47.1616H50.4541V44.564H56.0029V47.1616ZM20.1123 47.1616H14.7373V44.564H20.1123V47.1616ZM39.3574 45.9487H36.7559V43.3511H39.3574V45.9487ZM11.9619 41.7925H14.7354V44.563H11.9609V41.7925H9.1875V36.2505H6.41406V22.5688H9.1875V19.7983H11.9609V17.0278H14.7354V19.7983H11.9619V22.5688H9.18848V36.2505H11.9619V41.7925ZM58.7764 44.563H56.002V41.7925H58.7764V44.563ZM42.1328 43.3511H39.3584V38.1558H42.1328V43.3511ZM61.3779 41.7925H58.7764V36.2505H61.3779V41.7925ZM39.3574 38.1558H36.7559V32.9604H39.3574V38.1558ZM64.1533 36.2505H61.3789V22.5688H64.1533V36.2505ZM36.7559 32.9604H33.9814V30.3628H36.7559V32.9604ZM58.7764 30.7085H56.002V25.1665H58.7764V30.7085ZM28.4326 30.3618H25.6592V27.7642H28.4326V30.3618ZM31.209 19.7983H33.9824V22.5688H31.209V27.7642H33.9814V25.1665H36.7559V27.7642H33.9824V30.3618H31.208V27.7642H28.4346V22.5688H31.208V19.7983H28.4346V17.0278H31.209V19.7983ZM39.3574 25.1665H36.7559V19.7983H39.3574V25.1665ZM56.002 25.1665H53.2275V22.5688H56.002V25.1665ZM53.2275 22.5688H47.6797V19.7983H53.2275V22.5688ZM61.3779 22.5688H58.7764V19.7983H61.3779V22.5688ZM42.1328 19.7983H39.3584V17.0278H42.1328V19.7983ZM58.7764 19.7983H56.002V17.0278H58.7764V19.7983ZM28.4346 17.0269H14.7373V14.2563H28.4346V17.0269ZM56.002 17.0269H42.1318V14.2563H56.002V17.0269Z" fill="#252525"/>
</svg>
