<svg width="221" height="168" viewBox="0 0 221 168" fill="none" xmlns="http://www.w3.org/2000/svg">
<path d="M115.749 168H105.251V157.457H115.749V168Z" fill="#252525"/>
<path d="M105.251 157.457H94.6846V146.982H105.251V157.457Z" fill="#252525"/>
<path d="M126.246 157.457H115.749V146.982H126.246V157.457Z" fill="#252525"/>
<path d="M94.6846 146.982H73.6211V136.509H94.6846V146.982Z" fill="#252525"/>
<path d="M147.311 146.982H126.246V136.509H147.311V146.982Z" fill="#252525"/>
<path d="M73.6211 136.509H52.626V125.966H73.6211V136.509Z" fill="#252525"/>
<path d="M168.374 136.509H147.311V125.966H168.374V136.509Z" fill="#252525"/>
<path d="M52.626 125.966H31.5615V115.491H52.626V125.966Z" fill="#252525"/>
<path d="M189.438 125.966H168.374V115.491H189.438V125.966Z" fill="#252525"/>
<path d="M31.5615 115.491H21.0645V105.018H31.5615V115.491Z" fill="#252525"/>
<path d="M199.936 115.491H189.438V105.018H199.936V115.491Z" fill="#252525"/>
<path d="M21.0645 105.018H10.4971V84H21.0645V105.018Z" fill="#252525"/>
<path d="M210.434 105.018H199.936V84H210.434V105.018Z" fill="#252525"/>
<path d="M10.4971 84H0V31.4912H10.4971V84Z" fill="#252525"/>
<path d="M221 84H210.434V31.4912H221V84Z" fill="#252525"/>
<path d="M199.936 62.9824H189.438V41.9658H199.936V62.9824Z" fill="#252525"/>
<path d="M115.749 41.9658H105.251V31.4912H115.749V41.9658Z" fill="#252525"/>
<path d="M189.438 41.9658H178.872V31.4912H189.438V41.9658Z" fill="#252525"/>
<path d="M21.0645 31.4912H10.4971V21.0176H21.0645V31.4912Z" fill="#252525"/>
<path d="M105.251 31.4912H94.6846V21.0176H105.251V31.4912Z" fill="#252525"/>
<path d="M126.246 31.4912H115.749V21.0176H126.246V31.4912Z" fill="#252525"/>
<path d="M178.872 31.4912H157.808V21.0176H178.872V31.4912Z" fill="#252525"/>
<path d="M210.434 31.4912H199.936V21.0176H210.434V31.4912Z" fill="#252525"/>
<path d="M31.5615 21.0176H21.0645V10.4746H31.5615V21.0176Z" fill="#252525"/>
<path d="M94.6846 21.0176H84.1875V10.4746H94.6846V21.0176Z" fill="#252525"/>
<path d="M136.812 21.0176H126.246V10.4746H136.812V21.0176Z" fill="#252525"/>
<path d="M199.936 21.0176H189.438V10.4746H199.936V21.0176Z" fill="#252525"/>
<path d="M84.1875 10.4746H31.5615V0H84.1875V10.4746Z" fill="#252525"/>
<path d="M189.438 10.4746H136.812V0H189.438V10.4746Z" fill="#252525"/>
</svg>
