<svg width="100" height="100" viewBox="0 0 100 100" fill="none" xmlns="http://www.w3.org/2000/svg">
<rect width="100" height="100" rx="32" fill="#E7E8C6"/>
<path fill-rule="evenodd" clip-rule="evenodd" d="M47.6738 75.9834H51.5273V79.665H47.6699V75.9834H43.791V72.3262H47.6738V75.9834ZM55.3867 75.9834H51.5293V72.3262H55.3867V75.9834ZM36.0498 68.668H43.7861V72.3252H36.0469V68.668H28.3359V64.9863H36.0498V68.668ZM82.459 61.3291H78.6045V64.9863H70.8662V68.668H63.1279V72.3252H55.3887V68.668H63.127V64.9863H70.8652V61.3291H78.6016V57.6719H82.459V61.3291ZM28.335 64.9863H20.5957V61.3291H28.335V64.9863ZM16.7422 57.6719H20.5957V61.3291H16.7383V57.6719H12.8594V50.332H16.7422V57.6719ZM86.3203 31.9971H90.1973V50.333H86.3203V57.6719H82.4629V50.332H86.3145V31.9971H82.4629V28.3398H86.3203V31.9971ZM12.8574 50.333H9V31.9971H12.8574V50.333ZM78.6074 35.6543H82.459V42.9932H78.6016V35.6543H74.7246V31.9971H78.6074V35.6543ZM47.6738 31.9971H51.5273V35.6543H47.6699V31.9971H43.791V28.3398H47.6738V31.9971ZM16.7422 31.9971H12.8594V28.3398H16.7422V31.9971ZM55.3867 31.9971H51.5293V28.3398H55.3867V31.9971ZM74.7197 31.9971H66.9805V28.3398H74.7197V31.9971ZM20.5957 28.3389H16.7383V24.6582H20.5957V28.3389ZM43.7891 28.3389H39.9316V24.6582H43.7891V28.3389ZM78.6035 24.6582H82.459V28.3389H78.6016V24.6582H59.2715V28.3389H55.3887V24.6582H59.2676V21H78.6035V24.6582ZM39.9316 24.6582H20.5957V21H39.9316V24.6582Z" fill="#252525"/>
</svg>
