<svg width="27" height="26" viewBox="0 0 27 26" fill="none" xmlns="http://www.w3.org/2000/svg">
<g clip-path="url(#clip0_3510_120)">
<path d="M20.57 16.0956H19.2791V18.5737H16.7141V19.8087H14.1406V21.0437H17.9966V22.2868H19.2791V23.5218H20.57V24.7649H21.8525V25.9999H23.1434V24.7649H24.4259V23.5218H25.7084V22.2868H26.9994V21.0437H25.7084V19.8087H24.4259V18.5737H23.1434V17.3306H21.8525V13.6174H20.57V16.0956Z" fill="#E8E8C6"/>
<path d="M21.8535 8.66943H23.1445V13.6176H21.8535V8.66943Z" fill="#E8E8C6"/>
<path d="M20.5703 6.19116H21.8528V8.66929H20.5703V6.19116Z" fill="#E8E8C6"/>
<path d="M19.2793 3.71313H20.5702V6.19126H19.2793V3.71313Z" fill="#E8E8C6"/>
<path d="M17.998 9.9043H19.2805V12.3824H17.998V9.9043Z" fill="#E8E8C6"/>
<path d="M16.7148 7.42627H17.9973V9.90439H16.7148V7.42627Z" fill="#E8E8C6"/>
<path d="M16.7148 2.47803H19.2798V3.71303H16.7148V2.47803Z" fill="#E8E8C6"/>
<path d="M14.1406 6.19116H16.7141V7.42616H14.1406V6.19116Z" fill="#E8E8C6"/>
<path d="M14.1406 1.23511H16.7141V2.47823H14.1406V1.23511Z" fill="#E8E8C6"/>
<path d="M11.5684 4.9563H14.1418V6.1913H11.5684V4.9563Z" fill="#E8E8C6"/>
<path d="M8.99414 21.0437H14.141V22.2868H8.99414V21.0437Z" fill="#E8E8C6"/>
<path d="M8.99414 0H14.141V1.235H8.99414V0Z" fill="#E8E8C6"/>
<path d="M6.42969 19.8088H8.99469V21.0438H6.42969V19.8088Z" fill="#E8E8C6"/>
<path d="M6.42969 1.23511H8.99469V2.47823H6.42969V1.23511Z" fill="#E8E8C6"/>
<path d="M3.85547 18.5737H6.42891V19.8087H3.85547V18.5737Z" fill="#E8E8C6"/>
<path d="M3.85547 2.47803H6.42891V3.71303H3.85547V2.47803Z" fill="#E8E8C6"/>
<path d="M2.57422 16.0957H3.85672V18.5738H2.57422V16.0957Z" fill="#E8E8C6"/>
<path d="M2.57422 3.71313H3.85672V6.19126H2.57422V3.71313Z" fill="#E8E8C6"/>
<path d="M1.2832 13.6174H2.57414V16.0956H1.2832V13.6174Z" fill="#E8E8C6"/>
<path d="M1.2832 6.19116H2.57414V8.66929H1.2832V6.19116Z" fill="#E8E8C6"/>
<path d="M0 8.66943H1.2825V13.6176H0V8.66943Z" fill="#E8E8C6"/>
</g>
<defs>
<clipPath id="clip0_3510_120">
<rect width="27" height="26" fill="white"/>
</clipPath>
</defs>
</svg>
